<?xml version="1.0" encoding="UTF-8"?>
<svg xmlns="http://www.w3.org/2000/svg" xmlns:xlink="http://www.w3.org/1999/xlink"
  viewBox="0 0 480 480">
  <defs>
    <linearGradient id="d" x1="64.44" y1="-127.34" x2="386.34" y2="594.67" gradientUnits="userSpaceOnUse">
      <stop offset="0" stop-color="#ff1919" />
      <stop offset="1" stop-color="#0044d6" />
    </linearGradient>
  </defs>
  <g class="isolate">
    <path
      d="M480,203.51v155.6c0,66.77-54.12,120.89-120.89,120.89h-222.84C61.01,480,0,418.99,0,343.73v-98.93c0-33.14,26.86-60,60-60h1.13c32.51,0,58.87,26.36,58.87,58.87v29.19c0,48.13,39.02,87.14,87.14,87.14h66.93c47.46,0,85.93-38.47,85.93-85.93v-54.04c0-55.24-44.78-100.03-100.03-100.03H120c-66.27,0-120-53.73-120-120h0s276.49,0,276.49,0c112.4,0,203.51,91.11,203.51,203.51Z"
      fill="url(#d)" />
    <path
      d="M273.79,17.75H17.75c0,33.27,14.62,63.11,37.78,83.48,18.62,11.88,40.74,18.77,64.47,18.77h139.97c55.24,0,100.03,44.78,100.03,100.03v54.04c0,47.46-38.47,85.93-85.93,85.93h-66.93c-48.13,0-87.14-39.02-87.14-87.14v-29.19c0-23.91-14.27-44.48-34.74-53.7-3.52-.71-7.17-1.09-10.9-1.09h-1.04c-30.69,0-55.56,24.88-55.56,55.56v91.61c0,69.7,56.5,126.2,126.2,126.2h206.36c61.83,0,111.95-50.12,111.95-111.95v-144.09c0-104.08-84.38-188.46-188.46-188.46Z"
      class="overlay"
      fill="#fff" />
  </g>
  <style>
    .isolate {
      isolation: isolate;
    }
    .overlay {
      mix-blend-mode: overlay;
    }
  </style>
</svg>
