<svg xmlns="http://www.w3.org/2000/svg" viewBox="0 0 480 480">
  <path
    d="M480,203.51v155.6c0,66.77-54.12,120.89-120.89,120.89h-222.84C61.01,480,0,418.99,0,343.73v-98.93c0-33.14,26.86-60,60-60h1.13c32.51,0,58.87,26.36,58.87,58.87v29.19c0,48.13,39.02,87.14,87.14,87.14h66.93c47.46,0,85.93-38.47,85.93-85.93v-54.04c0-55.24-44.78-100.03-100.03-100.03H120c-66.27,0-120-53.73-120-120h0s276.49,0,276.49,0c112.4,0,203.51,91.11,203.51,203.51Z"
    fill="url(#d)" stroke-width="0" />
  <style>
    path {
      fill: #000;
    }

    @media (prefers-color-scheme: dark) {
      path {
        fill: #fff;
      }
    }
  </style>
</svg>
