<?xml version="1.0" encoding="UTF-8"?>
<svg xmlns="http://www.w3.org/2000/svg" xmlns:xlink="http://www.w3.org/1999/xlink"
  viewBox="0 0 480 480">
  <defs>
    <linearGradient id="d" x1="64.44" y1="-127.34" x2="386.34" y2="594.67" gradientUnits="userSpaceOnUse">
      <stop offset="0" stop-color="#ff1919" />
      <stop offset="1" stop-color="#0044d6" />
    </linearGradient>
  </defs>
  <g isolation="isolate">
    <g id="b">
      <g id="c">
        <path
          d="M480,203.51v155.6c0,66.77-54.12,120.89-120.89,120.89h-222.84C61.01,480,0,418.99,0,343.73v-98.93c0-33.14,26.86-60,60-60h1.13c32.51,0,58.87,26.36,58.87,58.87v29.19c0,48.13,39.02,87.14,87.14,87.14h66.93c47.46,0,85.93-38.47,85.93-85.93v-54.04c0-55.24-44.78-100.03-100.03-100.03H120c-66.27,0-120-53.73-120-120h0S276.49,0,276.49,0C388.89,0,480,91.11,480,203.51Z"
          fill="url(#d)" stroke-width="0" />
        <g mix-blend-mode="overlay">
          <path d="M106.24,119.21c-1.05-.12-2.09-.25-3.13-.4,1.04.15,2.08.28,3.13.4Z" fill="#fff" stroke-width="0" />
          <path d="M111.02,119.67c-1.29-.1-2.57-.21-3.85-.35,1.28.14,2.56.25,3.85.35Z" fill="#fff" stroke-width="0" />
          <path d="M272.71,120.8c-1.67-.21-3.35-.38-5.04-.51,1.69.13,3.37.3,5.04.51Z" fill="#fff" stroke-width="0" />
          <path d="M120,120h0c-1.32,0-2.64-.03-3.95-.07,1.31.04,2.63.07,3.95.07Z" fill="#fff" stroke-width="0" />
          <path d="M298.91,127.86c-1.5-.63-3.01-1.23-4.54-1.79,1.53.56,3.05,1.16,4.54,1.79Z" fill="#fff"
            stroke-width="0" />
          <path d="M119.26,234.35c.02.15.05.29.07.44-.02-.15-.05-.29-.07-.44Z" fill="#fff" stroke-width="0" />
          <path d="M118.7,231.35c.06.28.12.56.17.84-.06-.28-.11-.56-.17-.84Z" fill="#fff" stroke-width="0" />
          <path d="M114.99,119.89c-1.11-.05-2.21-.1-3.31-.18,1.1.08,2.2.13,3.31.18Z" fill="#fff" stroke-width="0" />
          <path d="M118.09,228.75c.06.24.12.49.18.74-.06-.25-.12-.49-.18-.74Z" fill="#fff" stroke-width="0" />
          <path d="M119.66,237.4c.03.25.05.49.07.74-.02-.25-.04-.49-.07-.74Z" fill="#fff" stroke-width="0" />
          <path d="M119.89,240.17c.02.26.03.53.04.79-.01-.26-.03-.53-.04-.79Z" fill="#fff" stroke-width="0" />
          <path d="M353.93,185.63c-.56-1.53-1.16-3.05-1.79-4.54.63,1.5,1.23,3.01,1.79,4.54Z" fill="#fff"
            stroke-width="0" />
          <path d="M347.93,172.35c-1.16-2.13-2.38-4.21-3.69-6.23,1.3,2.03,2.53,4.11,3.69,6.23Z" fill="#fff"
            stroke-width="0" />
          <path d="M341.55,162.12c-.93-1.31-1.89-2.59-2.88-3.85.99,1.26,1.95,2.54,2.88,3.85Z" fill="#fff"
            stroke-width="0" />
          <path d="M357.44,197.44c-.37-1.61-.78-3.21-1.23-4.79.45,1.58.86,3.18,1.23,4.79Z" fill="#fff"
            stroke-width="0" />
          <path
            d="M276.49,0H0c0,43.9,23.58,82.29,58.76,103.21-1.09-.65-2.16-1.3-3.23-1.98C32.37,80.86,17.75,51.02,17.75,17.75h0s256.04,0,256.04,0c104.08,0,188.46,84.38,188.46,188.46v144.09c0,61.83-50.12,111.95-111.95,111.95h-206.36c-69.7,0-126.2-56.5-126.2-126.2v-91.61c0-30.69,24.88-55.56,55.56-55.56h1.04c3.73,0,7.38.38,10.9,1.09-7.36-3.31-15.53-5.17-24.13-5.17h-1.13c-33.14,0-60,26.86-60,60v98.93c0,75.26,61.01,136.27,136.27,136.27h222.84c66.77,0,120.89-54.12,120.89-120.89v-155.6C480,91.11,388.89,0,276.49,0Z"
            fill="#fff" stroke-width="0" />
          <path d="M319.82,139.87c-1.28-.96-2.59-1.89-3.92-2.79,1.33.9,2.64,1.83,3.92,2.79Z" fill="#fff"
            stroke-width="0" />
          <path d="M303.34,129.86c-1.46-.7-2.94-1.37-4.43-2,1.5.63,2.97,1.3,4.43,2Z" fill="#fff" stroke-width="0" />
          <path d="M313.89,135.76c-1.35-.87-2.73-1.7-4.12-2.51,1.4.8,2.77,1.64,4.12,2.51Z" fill="#fff"
            stroke-width="0" />
          <path d="M327.23,145.99c-1.18-1.08-2.39-2.12-3.63-3.14,1.24,1.02,2.45,2.07,3.63,3.14Z" fill="#fff"
            stroke-width="0" />
          <path d="M328.99,147.62c1.74,1.66,3.41,3.37,5.03,5.15-1.61-1.78-3.29-3.49-5.03-5.15Z" fill="#fff"
            stroke-width="0" />
          <path d="M323.6,142.84c-1.23-1.02-2.49-2.01-3.78-2.97,1.28.96,2.54,1.95,3.78,2.97Z" fill="#fff"
            stroke-width="0" />
          <path d="M85.41,114.93c-1.12-.34-2.24-.69-3.34-1.06,1.11.37,2.22.72,3.34,1.06Z" fill="#fff"
            stroke-width="0" />
          <path d="M102.24,118.69c-1.27-.19-2.53-.39-3.79-.62,1.26.23,2.52.43,3.79.62Z" fill="#fff" stroke-width="0" />
          <path d="M85.26,189.98c4.46,2.01,8.62,4.55,12.4,7.55-3.78-3-7.94-5.54-12.4-7.55Z" fill="#fff"
            stroke-width="0" />
          <path d="M97.82,117.95c-1.08-.2-2.15-.42-3.22-.65,1.07.23,2.14.45,3.22.65Z" fill="#fff" stroke-width="0" />
          <path d="M93.69,117.1c-2.51-.56-4.99-1.2-7.44-1.92,2.45.72,4.93,1.36,7.44,1.92Z" fill="#fff"
            stroke-width="0" />
          <path d="M97.75,197.59c.52.42,1.04.84,1.54,1.27-.51-.43-1.02-.86-1.54-1.27Z" fill="#fff" stroke-width="0" />
          <path d="M81.75,113.77c-1.22-.41-2.43-.84-3.64-1.29,1.2.45,2.41.88,3.64,1.29Z" fill="#fff" stroke-width="0" />
          <path d="M77.43,112.22c-1.04-.39-2.07-.8-3.09-1.22,1.02.42,2.05.83,3.09,1.22Z" fill="#fff" stroke-width="0" />
          <path d="M73.78,110.77c-1.19-.5-2.37-1.01-3.54-1.54,1.17.53,2.35,1.05,3.54,1.54Z" fill="#fff"
            stroke-width="0" />
          <path d="M59.36,103.56c2.2,1.29,4.45,2.52,6.74,3.67-2.29-1.15-4.54-2.38-6.74-3.67Z" fill="#fff"
            stroke-width="0" />
          <path d="M69.83,109.04c-1.04-.48-2.08-.98-3.1-1.49,1.03.51,2.06,1.01,3.1,1.49Z" fill="#fff"
            stroke-width="0" />
          <path d="M103.63,202.96c-1.35-1.41-2.76-2.74-4.24-4.01,1.48,1.27,2.89,2.61,4.24,4.01Z" fill="#fff"
            stroke-width="0" />
          <path d="M112.63,215.14c.2.36.39.72.58,1.08-.19-.36-.38-.72-.58-1.08Z" fill="#fff" stroke-width="0" />
          <path d="M117.16,225.6c.08.25.17.5.24.75-.08-.25-.16-.5-.24-.75Z" fill="#fff" stroke-width="0" />
          <path d="M113.84,217.45c.17.33.34.67.5,1-.16-.34-.33-.67-.5-1Z" fill="#fff" stroke-width="0" />
          <path d="M116.25,222.97c.12.31.23.63.34.94-.11-.32-.23-.63-.34-.94Z" fill="#fff" stroke-width="0" />
          <path d="M115.29,220.57c.12.27.22.55.34.83-.11-.27-.22-.55-.34-.83Z" fill="#fff" stroke-width="0" />
          <path d="M110.85,212.17c.39.61.76,1.22,1.12,1.84-.36-.62-.74-1.23-1.12-1.84Z" fill="#fff" stroke-width="0" />
          <path d="M109.41,210c.28.4.55.79.82,1.19-.27-.4-.54-.8-.82-1.19Z" fill="#fff" stroke-width="0" />
          <path d="M105.49,205c.72.82,1.41,1.66,2.08,2.52-.67-.86-1.36-1.7-2.08-2.52Z" fill="#fff" stroke-width="0" />
          <path d="M104,203.35c.4.42.79.85,1.18,1.29-.39-.44-.78-.86-1.18-1.29Z" fill="#fff" stroke-width="0" />
          <path d="M107.95,207.99c.31.4.61.81.91,1.23-.3-.41-.6-.82-.91-1.23Z" fill="#fff" stroke-width="0" />
        </g>
      </g>
    </g>
  </g>
</svg>
